# 3ds Max Wavefront OBJ Exporter v0.94b - (c)2007 guruware
# File Created: 16.05.2012 18:49:55

mtllib Goldjewel.mtl

#
# object DrawCall_0163
#

v  -0.0085 0.4985 -0.1346
v  -0.1444 0.9715 -0.1050
v  -0.0103 1.3286 -0.0871
v  -0.2220 0.4342 -0.1342
v  -0.1031 0.2404 -0.1476
v  0.0871 0.2410 -0.1512
v  0.2053 0.4355 -0.1424
v  0.1254 0.9724 -0.1101
v  -0.2616 1.1305 0.0024
v  -0.0095 1.5844 -0.0048
v  -0.4072 0.3773 0.0092
v  -0.1831 0.0117 0.0068
v  0.1744 0.0129 0.0000
v  0.3962 0.3799 -0.0062
v  0.2456 1.1321 -0.0073
v  -0.1523 0.9880 0.0966
v  -0.0073 1.3542 0.0690
v  -0.2354 0.4300 0.1360
v  -0.1057 0.2196 0.1479
v  0.1011 0.2202 0.1439
v  0.2289 0.4315 0.1272
v  0.1409 0.9889 0.0910
v  -0.0036 0.4999 0.1270
# 23 vertices

vn -0.0192 0.0571 -0.9982
vn -0.0191 0.0571 -0.9982
vn -0.0193 0.0570 -0.9982
vn -0.0193 0.0571 -0.9982
vn -0.5026 0.2661 -0.8225
vn -0.4776 0.2219 -0.8501
vn -0.5890 0.1066 -0.8011
vn -0.6320 0.1328 -0.7635
vn -0.5193 -0.3133 -0.7951
vn -0.5820 -0.3053 -0.7537
vn -0.0140 -0.5562 -0.8309
vn 0.5177 -0.3262 -0.7909
vn 0.5058 -0.2702 -0.8192
vn 0.5995 0.1188 -0.7915
vn 0.5388 0.1303 -0.8323
vn 0.4231 0.2434 -0.8728
vn 0.5385 0.2568 -0.8026
vn -0.5000 0.2601 0.8261
vn -0.4247 0.2496 0.8702
vn -0.5366 0.1387 0.8323
vn -0.6140 0.1257 0.7792
vn -0.5161 -0.2724 0.8121
vn -0.5318 -0.3310 0.7795
vn 0.0176 -0.5660 0.8242
vn 0.0175 -0.5659 0.8243
vn 0.5981 -0.3033 0.7418
vn 0.5330 -0.3088 0.7878
vn 0.6444 0.1505 0.7497
vn 0.5883 0.1189 0.7999
vn 0.4682 0.2412 0.8501
vn 0.4880 0.2708 0.8297
vn 0.0187 0.0677 0.9975
vn 0.0186 0.0677 0.9975
vn 0.0186 0.0678 0.9975
vn 0.0190 0.0677 0.9975
vn 0.0187 0.0675 0.9975
vn 0.0188 0.0678 0.9975
vn 0.0189 0.0677 0.9975
# 38 vertex normals

vt 0.0750 0.4125 0.0000
vt 0.0164 0.3735 0.0000
vt 0.0190 0.3649 0.0000
vt 0.0140 0.3825 0.0000
vt 0.0060 0.4487 0.0000
vt 0.0042 0.4518 0.0000
vt 0.0085 0.4452 0.0000
vt 0.0241 0.6525 0.0000
vt 0.0242 0.6509 0.0000
vt 0.0247 0.6551 0.0000
vt 0.1448 0.7216 0.0000
vt 0.3009 0.5544 0.0000
vt 0.3060 0.5638 0.0000
vt 0.2910 0.5358 0.0000
vt 0.3173 0.3383 0.0000
vt 0.3292 0.3393 0.0000
vt 0.2957 0.3367 0.0000
vt 0.2646 0.2854 0.0000
vt 0.2478 0.2894 0.0000
vt 0.3083 0.2769 0.0000
vt 0.7409 0.4696 0.0000
vt 0.7130 0.4689 0.0000
vt 0.7523 0.4699 0.0000
vt 0.6782 0.5384 0.0000
vt 0.7057 0.5319 0.0000
vt 0.6624 0.5419 0.0000
vt 0.6900 0.7476 0.0000
vt 0.7015 0.7295 0.0000
vt 0.6835 0.7573 0.0000
vt 0.8498 0.8252 0.0000
vt 0.9742 0.6468 0.0000
vt 0.9727 0.6397 0.0000
vt 0.9745 0.6510 0.0000
vt 0.9934 0.4266 0.0000
vt 0.9900 0.4145 0.0000
vt 0.9958 0.4381 0.0000
vt 0.9834 0.3836 0.0000
vt 0.9849 0.3923 0.0000
vt 0.9818 0.3748 0.0000
vt 0.9250 0.5266 0.0000
# 40 texture coords

g DrawCall_0163
usemtl e29a9d2f_dds
s off
f 1/1/1 2/1/1 3/1/1 
f 1/1/1 4/1/1 2/1/1 
f 1/1/1 5/1/1 4/1/1 
f 1/1/2 6/1/2 5/1/2 
f 1/1/3 7/1/3 6/1/3 
f 1/1/4 8/1/4 7/1/4 
f 1/1/2 3/1/2 8/1/2 
f 3/2/5 9/2/5 10/3/5 
f 3/2/6 2/4/6 9/2/6 
f 2/5/7 11/5/7 9/6/7 
f 2/5/8 4/7/8 11/5/8 
f 4/8/9 12/8/9 11/9/9 
f 4/8/10 5/10/10 12/8/10 
f 5/11/11 13/11/11 12/11/11 
f 5/11/11 6/11/11 13/11/11 
f 6/12/12 14/12/12 13/13/12 
f 6/12/13 7/14/13 14/12/13 
f 7/15/14 15/15/14 14/16/14 
f 7/15/15 8/17/15 15/15/15 
f 8/18/16 10/18/16 15/19/16 
f 8/18/17 3/20/17 10/18/17 
f 10/21/18 16/21/18 17/22/18 
f 10/21/19 9/23/19 16/21/19 
f 9/24/20 18/24/20 16/25/20 
f 9/24/21 11/26/21 18/24/21 
f 11/27/22 19/27/22 18/28/22 
f 11/27/23 12/29/23 19/27/23 
f 12/30/24 20/30/24 19/30/24 
f 12/30/25 13/30/25 20/30/25 
f 13/31/26 21/31/26 20/32/26 
f 13/31/27 14/33/27 21/31/27 
f 14/34/28 22/34/28 21/35/28 
f 14/34/29 15/36/29 22/34/29 
f 15/37/30 17/37/30 22/38/30 
f 15/37/31 10/39/31 17/37/31 
f 23/40/32 17/40/32 16/40/32 
f 23/40/33 16/40/33 18/40/33 
f 23/40/34 18/40/34 19/40/34 
f 23/40/35 19/40/35 20/40/35 
f 23/40/36 20/40/36 21/40/36 
f 23/40/37 21/40/37 22/40/37 
f 23/40/38 22/40/38 17/40/38 
# 0 polygons - 42 triangles

#
# object DrawCall_0224
#

